<svg width="1310" height="1310" viewBox="0 0 1310 1310" fill="none" xmlns="http://www.w3.org/2000/svg">
<rect width="1310" height="1310" fill="#EDEDF4"/>
<ellipse cx="432.476" cy="660.485" rx="30.4757" ry="30.4757" fill="#31313B"/>
<path d="M499.424 680.47C499.424 682.712 499.685 684.431 500.209 685.627C500.807 686.749 502.003 687.533 503.796 687.982C505.59 688.43 508.281 688.655 511.869 688.655C512.093 688.655 512.205 688.879 512.205 689.327C512.205 689.776 512.093 690 511.869 690C509.477 690 506.861 689.963 504.021 689.888C501.255 689.813 498.228 689.776 494.939 689.776C492.472 689.776 490.043 689.813 487.651 689.888C485.334 689.963 483.241 690 481.373 690C481.223 690 481.148 689.776 481.148 689.327C481.148 688.879 481.223 688.655 481.373 688.655C483.989 688.655 485.932 688.468 487.203 688.094C488.548 687.72 489.408 686.973 489.782 685.852C490.23 684.73 490.454 683.086 490.454 680.918V629.007C490.454 626.84 490.23 625.233 489.782 624.186C489.408 623.065 488.548 622.318 487.203 621.944C485.932 621.495 483.989 621.271 481.373 621.271C481.223 621.271 481.148 621.047 481.148 620.598C481.148 620.15 481.223 619.926 481.373 619.926C483.241 619.926 485.334 620 487.651 620.15C489.968 620.225 492.36 620.262 494.827 620.262C496.77 620.262 499.125 620.15 501.89 619.926C504.731 619.701 507.571 619.589 510.411 619.589C514.747 619.589 518.633 620.225 522.072 621.495C525.585 622.766 528.388 624.747 530.481 627.438C532.574 630.129 533.657 633.642 533.732 637.977C533.732 641.864 533.022 645.227 531.602 648.068C530.182 650.908 528.238 653.262 525.772 655.131C523.38 657 520.689 658.382 517.699 659.279C514.784 660.176 511.906 660.625 509.066 660.625C508.169 660.625 507.235 660.587 506.263 660.513C505.366 660.438 504.506 660.289 503.684 660.064C503.385 659.99 503.273 659.728 503.348 659.279C503.497 658.756 503.684 658.532 503.909 658.607C504.581 658.756 505.254 658.868 505.927 658.943C506.674 659.018 507.309 659.055 507.833 659.055C510.673 659.055 513.289 658.382 515.681 657.037C518.073 655.692 520.016 653.636 521.511 650.871C523.006 648.03 523.754 644.517 523.754 640.331C523.754 636.295 523.043 632.894 521.623 630.129C520.278 627.363 518.372 625.233 515.905 623.738C513.439 622.243 510.598 621.495 507.384 621.495C505.291 621.495 503.647 621.645 502.451 621.944C501.33 622.243 500.545 622.953 500.096 624.074C499.648 625.195 499.424 626.914 499.424 629.232V680.47ZM560.692 691.345C556.058 691.345 552.171 690.336 549.032 688.318C545.893 686.225 543.501 683.534 541.856 680.246C540.287 676.957 539.502 673.444 539.502 669.706C539.502 665.222 540.548 661.185 542.641 657.598C544.809 653.935 547.724 651.057 551.386 648.964C555.049 646.797 559.123 645.713 563.607 645.713C567.943 645.713 571.269 646.797 573.586 648.964C575.978 651.132 577.174 654.309 577.174 658.495C577.174 659.466 577.062 660.251 576.837 660.849C576.688 661.372 576.352 661.634 575.828 661.634H568.092C568.391 657.149 567.793 653.748 566.298 651.431C564.878 649.114 562.71 647.955 559.795 647.955C556.133 647.955 553.255 649.525 551.162 652.664C549.144 655.804 548.135 660.027 548.135 665.334C548.135 669.594 548.808 673.369 550.153 676.658C551.499 679.872 553.479 682.376 556.095 684.17C558.712 685.964 561.888 686.861 565.626 686.861C568.092 686.861 570.11 686.524 571.68 685.852C573.324 685.179 575.006 684.357 576.725 683.385C576.875 683.235 577.062 683.348 577.286 683.721C577.585 684.02 577.66 684.282 577.51 684.506C574.819 686.973 572.091 688.729 569.325 689.776C566.56 690.822 563.682 691.345 560.692 691.345ZM545.556 661.746L545.444 660.064L570.559 659.616V661.634L545.556 661.746ZM616.655 690C616.43 690 616.318 689.776 616.318 689.327C616.318 688.879 616.43 688.655 616.655 688.655C619.345 688.655 621.102 688.169 621.924 687.197C622.821 686.151 623.27 684.058 623.27 680.918V663.316C623.27 659.055 622.485 655.916 620.915 653.898C619.345 651.805 616.841 650.758 613.403 650.758C610.787 650.758 608.134 651.543 605.443 653.113C602.827 654.608 600.584 656.701 598.716 659.392L598.267 658.046C601.332 653.86 604.471 650.684 607.685 648.516C610.974 646.348 614.412 645.265 618 645.265C622.111 645.265 625.288 646.461 627.53 648.852C629.847 651.244 631.006 654.645 631.006 659.055V680.918C631.006 684.058 631.417 686.151 632.239 687.197C633.136 688.169 634.967 688.655 637.733 688.655C637.957 688.655 638.069 688.879 638.069 689.327C638.069 689.776 637.957 690 637.733 690C636.313 690 634.706 689.963 632.912 689.888C631.118 689.813 629.212 689.776 627.194 689.776C625.176 689.776 623.232 689.813 621.364 689.888C619.57 689.963 618 690 616.655 690ZM586.495 690C586.27 690 586.158 689.776 586.158 689.327C586.158 688.879 586.27 688.655 586.495 688.655C589.185 688.655 590.942 688.169 591.764 687.197C592.661 686.151 593.11 684.058 593.11 680.918V659.055C593.11 656.663 592.811 654.907 592.213 653.786C591.689 652.664 590.755 652.104 589.41 652.104C588.662 652.104 587.803 652.253 586.831 652.552C585.859 652.777 584.738 653.15 583.467 653.673C583.168 653.823 582.944 653.711 582.795 653.337C582.645 652.889 582.683 652.59 582.907 652.44L596.697 645.825C596.996 645.75 597.221 645.713 597.37 645.713C598.043 645.713 598.79 646.535 599.612 648.18C600.435 649.824 600.846 652.179 600.846 655.243V680.918C600.846 684.058 601.257 686.151 602.079 687.197C602.976 688.169 604.807 688.655 607.573 688.655C607.797 688.655 607.909 688.879 607.909 689.327C607.909 689.776 607.797 690 607.573 690C606.153 690 604.546 689.963 602.752 689.888C600.958 689.813 599.052 689.776 597.034 689.776C595.016 689.776 593.072 689.813 591.204 689.888C589.41 689.963 587.84 690 586.495 690ZM661.337 691.458C658.198 691.458 655.283 690.598 652.592 688.879C649.976 687.085 647.846 684.581 646.201 681.367C644.632 678.153 643.847 674.341 643.847 669.931C643.847 665.521 644.632 661.783 646.201 658.719C647.846 655.58 649.939 653.038 652.48 651.095C655.096 649.151 657.899 647.694 660.889 646.722C663.879 645.75 666.719 645.265 669.41 645.265C672.101 645.265 674.567 645.676 676.81 646.498C679.127 647.32 681.257 648.404 683.201 649.749L681.407 657.822C679.688 654.757 677.707 652.328 675.464 650.534C673.222 648.666 670.344 647.731 666.831 647.731C662.496 647.731 658.983 649.263 656.292 652.328C653.676 655.393 652.368 660.102 652.368 666.455C652.368 670.716 652.966 674.378 654.162 677.443C655.432 680.507 657.114 682.862 659.207 684.506C661.3 686.151 663.655 686.973 666.271 686.973C669.559 686.973 672.437 686.076 674.904 684.282C677.37 682.488 679.725 680.32 681.967 677.779L682.976 678.676C681.407 680.47 679.575 682.376 677.483 684.394C675.39 686.337 672.998 688.019 670.307 689.439C667.691 690.785 664.701 691.458 661.337 691.458ZM687.125 609.835V677.443C687.125 680.059 687.424 681.965 688.022 683.161C688.62 684.282 689.591 684.843 690.937 684.843C691.609 684.843 692.394 684.768 693.291 684.618C694.263 684.394 695.309 683.983 696.431 683.385C696.73 683.235 696.954 683.385 697.103 683.833C697.328 684.207 697.328 684.469 697.103 684.618L683.761 691.009C683.462 691.159 683.201 691.233 682.976 691.233C682.079 691.233 681.257 690.336 680.51 688.542C679.837 686.749 679.501 684.207 679.501 680.918V623.401C679.501 620.711 679.239 618.767 678.716 617.571C678.267 616.375 677.37 615.777 676.025 615.777C675.352 615.777 674.642 615.927 673.895 616.226C673.147 616.45 672.213 616.824 671.092 617.347C670.793 617.422 670.531 617.235 670.307 616.786C670.157 616.338 670.195 616.076 670.419 616.002L685.331 608.826C685.48 608.751 685.667 608.714 685.891 608.714C686.116 608.714 686.377 608.826 686.676 609.05C686.975 609.274 687.125 609.536 687.125 609.835ZM718.038 691.009C714.226 691.009 711.199 689.813 708.956 687.421C706.789 684.955 705.705 681.554 705.705 677.218V660.289C705.705 657.448 705.443 655.393 704.92 654.122C704.472 652.851 703.612 652.216 702.341 652.216C701.37 652.216 700.211 652.552 698.866 653.225C698.567 653.375 698.305 653.225 698.081 652.777C697.931 652.328 698.006 652.066 698.305 651.992L711.535 645.825C711.685 645.75 711.834 645.713 711.984 645.713C712.283 645.713 712.582 645.825 712.881 646.049C713.18 646.274 713.329 646.535 713.329 646.834V672.958C713.329 677.293 714.076 680.507 715.571 682.6C717.141 684.618 719.496 685.627 722.635 685.627C725.326 685.627 727.979 684.843 730.595 683.273C733.286 681.703 735.566 679.648 737.435 677.106L737.995 678.34C734.856 682.525 731.642 685.702 728.353 687.87C725.139 689.963 721.701 691.009 718.038 691.009ZM742.928 646.834V677.667C742.928 680.208 743.19 682.04 743.713 683.161C744.311 684.282 745.283 684.843 746.628 684.843C747.301 684.843 748.048 684.73 748.871 684.506C749.768 684.207 750.851 683.796 752.122 683.273C752.421 683.123 752.645 683.273 752.795 683.721C753.019 684.095 753.019 684.357 752.795 684.506L738.892 691.121C738.743 691.196 738.556 691.233 738.332 691.233C737.734 691.233 737.061 690.411 736.313 688.767C735.641 687.048 735.304 684.618 735.304 681.479V660.289C735.304 657.448 735.043 655.393 734.519 654.122C733.996 652.851 733.137 652.216 731.941 652.216C730.969 652.216 729.773 652.552 728.353 653.225C728.129 653.375 727.904 653.225 727.68 652.777C727.531 652.328 727.605 652.066 727.904 651.992L741.134 645.825C741.284 645.75 741.433 645.713 741.583 645.713C741.807 645.713 742.069 645.825 742.368 646.049C742.742 646.274 742.928 646.535 742.928 646.834ZM757.287 690C757.138 690 757.063 689.776 757.063 689.327C757.063 688.879 757.138 688.655 757.287 688.655C760.053 688.655 761.847 688.169 762.669 687.197C763.566 686.151 764.015 684.058 764.015 680.918L764.127 623.289C764.127 620.673 763.865 618.767 763.342 617.571C762.893 616.375 761.996 615.777 760.651 615.777C759.53 615.777 757.923 616.263 755.83 617.235C755.531 617.384 755.269 617.235 755.045 616.786C754.896 616.338 754.933 616.076 755.157 616.002L770.181 608.826C770.331 608.751 770.48 608.714 770.63 608.714C770.854 608.714 771.115 608.826 771.414 609.05C771.788 609.274 771.975 609.536 771.975 609.835V680.918C771.975 683.983 772.386 686.038 773.208 687.085C774.031 688.131 775.824 688.655 778.59 688.655C778.889 688.655 779.039 688.879 779.039 689.327C779.039 689.776 778.889 690 778.59 690C777.245 690 775.638 689.963 773.769 689.888C771.975 689.813 770.032 689.776 767.939 689.776C765.921 689.776 763.977 689.813 762.109 689.888C760.315 689.963 758.708 690 757.287 690ZM803.003 691.009C799.191 691.009 796.164 689.813 793.921 687.421C791.754 684.955 790.67 681.554 790.67 677.218V660.289C790.67 657.448 790.408 655.393 789.885 654.122C789.437 652.851 788.577 652.216 787.306 652.216C786.335 652.216 785.176 652.552 783.831 653.225C783.532 653.375 783.27 653.225 783.046 652.777C782.896 652.328 782.971 652.066 783.27 651.992L796.5 645.825C796.65 645.75 796.799 645.713 796.949 645.713C797.248 645.713 797.547 645.825 797.846 646.049C798.145 646.274 798.294 646.535 798.294 646.834V672.958C798.294 677.293 799.042 680.507 800.536 682.6C802.106 684.618 804.461 685.627 807.6 685.627C810.291 685.627 812.944 684.843 815.56 683.273C818.251 681.703 820.531 679.648 822.4 677.106L822.96 678.34C819.821 682.525 816.607 685.702 813.318 687.87C810.104 689.963 806.666 691.009 803.003 691.009ZM827.893 646.834V677.667C827.893 680.208 828.155 682.04 828.678 683.161C829.276 684.282 830.248 684.843 831.593 684.843C832.266 684.843 833.014 684.73 833.836 684.506C834.733 684.207 835.817 683.796 837.087 683.273C837.386 683.123 837.61 683.273 837.76 683.721C837.984 684.095 837.984 684.357 837.76 684.506L823.857 691.121C823.708 691.196 823.521 691.233 823.297 691.233C822.699 691.233 822.026 690.411 821.278 688.767C820.606 687.048 820.269 684.618 820.269 681.479V660.289C820.269 657.448 820.008 655.393 819.485 654.122C818.961 652.851 818.102 652.216 816.906 652.216C815.934 652.216 814.738 652.552 813.318 653.225C813.094 653.375 812.87 653.225 812.645 652.777C812.496 652.328 812.571 652.066 812.87 651.992L826.1 645.825C826.249 645.75 826.399 645.713 826.548 645.713C826.772 645.713 827.034 645.825 827.333 646.049C827.707 646.274 827.893 646.535 827.893 646.834ZM900.666 690C900.517 690 900.442 689.776 900.442 689.327C900.442 688.879 900.517 688.655 900.666 688.655C903.432 688.655 905.263 688.169 906.16 687.197C907.057 686.151 907.506 684.058 907.506 680.918V663.652C907.506 655.131 904.404 650.871 898.2 650.871C895.658 650.871 893.117 651.655 890.576 653.225C888.034 654.795 885.867 656.888 884.073 659.504L883.624 658.158C886.614 653.972 889.679 650.833 892.818 648.74C895.957 646.573 899.284 645.489 902.797 645.489C906.684 645.489 909.673 646.61 911.766 648.852C913.934 651.095 915.018 654.57 915.018 659.279V680.918C915.018 684.058 915.429 686.151 916.251 687.197C917.148 688.169 918.979 688.655 921.745 688.655C922.044 688.655 922.193 688.879 922.193 689.327C922.193 689.776 922.044 690 921.745 690C920.399 690 918.792 689.963 916.924 689.888C915.13 689.813 913.224 689.776 911.206 689.776C909.262 689.776 907.356 689.813 905.488 689.888C903.694 689.963 902.087 690 900.666 690ZM871.628 690C871.403 690 871.291 689.776 871.291 689.327C871.291 688.879 871.403 688.655 871.628 688.655C874.319 688.655 876.112 688.169 877.009 687.197C877.906 686.151 878.355 684.058 878.355 680.918V663.652C878.355 655.131 875.29 650.871 869.161 650.871C866.545 650.871 863.966 651.655 861.425 653.225C858.958 654.795 856.828 656.888 855.034 659.504L854.586 658.158C857.575 653.972 860.64 650.833 863.779 648.74C866.919 646.573 870.208 645.489 873.646 645.489C877.533 645.489 880.56 646.61 882.727 648.852C884.895 651.02 885.979 654.309 885.979 658.719V680.918C885.979 684.058 886.39 686.151 887.212 687.197C888.109 688.169 889.94 688.655 892.706 688.655C892.93 688.655 893.042 688.879 893.042 689.327C893.042 689.776 892.93 690 892.706 690C891.286 690 889.679 689.963 887.885 689.888C886.091 689.813 884.185 689.776 882.167 689.776C880.149 689.776 878.205 689.813 876.337 689.888C874.543 689.963 872.973 690 871.628 690ZM842.813 690C842.589 690 842.477 689.776 842.477 689.327C842.477 688.879 842.589 688.655 842.813 688.655C845.504 688.655 847.261 688.169 848.083 687.197C848.98 686.151 849.428 684.058 849.428 680.918V659.055C849.428 656.663 849.129 654.907 848.531 653.786C848.008 652.664 847.074 652.104 845.728 652.104C844.981 652.104 844.121 652.253 843.15 652.552C842.178 652.777 841.057 653.15 839.786 653.673C839.487 653.823 839.263 653.711 839.113 653.337C838.964 652.889 839.001 652.59 839.225 652.44L853.016 645.825C853.315 645.75 853.539 645.713 853.689 645.713C854.361 645.713 855.109 646.535 855.931 648.18C856.753 649.824 857.164 652.179 857.164 655.243V680.918C857.164 684.058 857.575 686.151 858.398 687.197C859.295 688.169 861.126 688.655 863.891 688.655C864.116 688.655 864.228 688.879 864.228 689.327C864.228 689.776 864.116 690 863.891 690C862.471 690 860.864 689.963 859.07 689.888C857.276 689.813 855.37 689.776 853.352 689.776C851.334 689.776 849.391 689.813 847.522 689.888C845.728 689.963 844.159 690 842.813 690Z" fill="#31313B"/>
</svg>
